<svg width="12" height="12" viewBox="0 0 12 12" fill="none" xmlns="http://www.w3.org/2000/svg">
<path fill-rule="evenodd" clip-rule="evenodd" d="M11.3782 1.11115C11.4261 1.06326 11.4641 1.00642 11.49 0.943854C11.5159 0.88129 11.5293 0.814235 11.5293 0.746517C11.5293 0.678798 11.5159 0.611743 11.49 0.54918C11.4641 0.486616 11.4261 0.429769 11.3782 0.381885C11.3304 0.334001 11.2735 0.296018 11.211 0.270103C11.1484 0.244188 11.0813 0.23085 11.0136 0.23085C10.9459 0.23085 10.8788 0.244188 10.8163 0.270103C10.7537 0.296018 10.6969 0.334001 10.649 0.381885L5.86346 5.16844L1.07793 0.381885C1.03005 0.334001 0.973199 0.296018 0.910635 0.270103C0.848072 0.244188 0.781017 0.23085 0.713298 0.23085C0.64558 0.23085 0.578525 0.244188 0.515961 0.270103C0.453398 0.296018 0.396551 0.334001 0.348667 0.381885C0.300783 0.429769 0.262799 0.486616 0.236885 0.54918C0.21097 0.611743 0.197632 0.678798 0.197632 0.746517C0.197632 0.814235 0.21097 0.88129 0.236885 0.943854C0.262799 1.00642 0.300783 1.06326 0.348667 1.11115L5.13522 5.89668L0.348667 10.6822C0.251961 10.7789 0.197632 10.9101 0.197632 11.0468C0.197632 11.1836 0.251961 11.3148 0.348667 11.4115C0.445373 11.5082 0.576535 11.5625 0.713298 11.5625C0.850062 11.5625 0.981223 11.5082 1.07793 11.4115L5.86346 6.62491L10.649 11.4115C10.7457 11.5082 10.8769 11.5625 11.0136 11.5625C11.1504 11.5625 11.2815 11.5082 11.3782 11.4115C11.475 11.3148 11.5293 11.1836 11.5293 11.0468C11.5293 10.9101 11.475 10.7789 11.3782 10.6822L6.59169 5.89668L11.3782 1.11115Z" fill="#909294"/>
</svg>
