<?xml version="1.0" standalone="no"?>
<!DOCTYPE svg PUBLIC "-//W3C//DTD SVG 20010904//EN"
 "http://www.w3.org/TR/2001/REC-SVG-20010904/DTD/svg10.dtd">
<svg version="1.0" xmlns="http://www.w3.org/2000/svg"
 width="92.000000pt" height="92.000000pt" viewBox="0 0 92.000000 92.000000"
 preserveAspectRatio="xMidYMid meet">

<g transform="translate(0.000000,92.000000) scale(0.100000,-0.100000)"
fill="#000000" stroke="none">
<path d="M0 727 c0 -183 1 -195 21 -212 13 -12 33 -19 57 -18 l37 2 -30 -10
c-17 -5 -40 -24 -52 -43 l-22 -34 21 -5 c14 -4 32 3 51 19 16 14 31 23 34 20
2 -2 6 -21 9 -42 2 -22 6 -54 9 -72 4 -21 1 -40 -7 -50 -11 -13 -11 -15 2 -8
8 4 6 0 -4 -8 -26 -21 -29 -20 -65 10 -19 15 -31 35 -31 50 0 17 -4 22 -15 18
-12 -5 -15 -28 -15 -121 0 -88 3 -113 13 -107 10 6 10 4 0 -7 -7 -7 -13 -35
-13 -61 l0 -48 65 0 c52 0 65 3 65 16 0 8 -4 13 -9 10 -4 -3 -19 3 -31 14 -13
11 -27 20 -33 20 -5 0 -4 7 3 15 6 8 9 19 5 25 -12 20 5 74 35 110 l30 35 -25
-62 c-29 -73 -32 -91 -10 -73 8 7 23 38 31 69 9 31 20 58 24 61 3 3 9 13 13
23 8 21 17 21 43 2 16 -13 17 -16 4 -25 -22 -14 -30 -12 -30 8 -1 13 -4 11
-14 -8 -17 -29 -11 -44 15 -37 11 3 19 1 19 -4 0 -5 6 -9 14 -9 8 0 25 -12 38
-28 32 -38 79 -73 89 -67 4 3 20 -11 35 -32 14 -21 24 -30 21 -20 -4 11 -1 17
8 17 8 0 15 -12 17 -28 3 -26 6 -27 63 -29 l60 -2 -3 44 c-2 24 1 52 7 62 10
16 11 14 10 -12 -3 -44 12 -95 27 -95 8 0 14 6 14 13 0 9 2 9 8 0 6 -9 43 -12
127 -11 66 1 110 3 98 5 -27 5 -31 25 -5 22 62 -6 62 -5 62 83 0 83 6 95 20
36 7 -28 8 -24 9 29 1 40 -3 63 -11 67 -10 5 -10 7 0 12 7 3 12 25 12 54 0 39
-4 52 -20 60 -26 14 -26 33 0 25 20 -6 20 -2 20 259 l0 266 -460 0 -460 0 0
-193z m628 131 c-2 -12 -12 -25 -24 -28 -11 -3 -41 -23 -67 -45 l-47 -40 15
-49 c8 -27 13 -51 11 -53 -2 -2 -19 14 -37 36 l-34 40 -11 -31 c-6 -18 -16
-34 -24 -36 -10 -4 -12 6 -8 44 l6 49 -12 -37 -11 -37 -19 32 c-11 18 -19 39
-17 47 1 12 0 12 -7 2 -6 -9 -16 -10 -31 -4 -23 8 -23 9 15 54 64 76 87 75 79
-5 -5 -56 -4 -55 15 11 11 33 18 42 36 42 30 0 38 -14 23 -42 -10 -18 -5 -17
28 10 22 17 50 33 62 35 12 2 27 9 33 15 19 19 30 14 26 -10z m115 8 c3 -8 20
-17 37 -21 26 -6 35 -3 47 15 10 15 19 18 25 12 15 -15 2 -42 -18 -42 -10 0
-34 -8 -55 -17 -34 -15 -41 -24 -59 -77 -20 -59 -40 -100 -40 -82 0 5 -7 3
-15 -4 -19 -16 -19 -9 4 73 l19 68 -36 -3 c-34 -3 -37 -6 -50 -53 -19 -73 -33
-105 -45 -105 -12 0 -4 96 13 153 9 31 16 38 33 36 12 -1 35 3 50 9 16 7 32
12 37 12 5 0 14 9 20 20 13 23 26 26 33 6z m-429 -5 c3 -4 -49 -61 -115 -126
-138 -135 -155 -139 -127 -32 9 34 19 69 23 78 4 12 -1 18 -17 22 -39 11 -9
25 97 45 119 23 132 25 139 13z m536 -54 c0 -41 -49 -179 -61 -171 -14 8 -11
62 7 126 13 44 21 58 35 58 11 0 19 -6 19 -13z m-550 -81 c0 -3 -4 -8 -10 -11
-5 -3 -10 -1 -10 4 0 6 5 11 10 11 6 0 10 -2 10 -4z m16 -33 c-10 -10 -19 5
-10 18 6 11 8 11 12 0 2 -7 1 -15 -2 -18z m-39 -18 c0 -8 -4 -12 -9 -9 -5 3
-6 10 -3 15 9 13 12 11 12 -6z m27 -66 c-8 -13 -24 -1 -24 18 0 13 3 13 15 3
8 -7 12 -16 9 -21z m-40 -1 c-11 -18 -14 -138 -4 -138 6 0 10 -9 10 -19 0 -24
19 -31 43 -17 29 18 41 -13 16 -40 -17 -18 -18 -23 -5 -33 11 -9 23 -8 55 5
32 13 47 14 72 5 l32 -11 -6 45 c-7 50 -3 55 24 24 10 -12 25 -19 33 -16 9 4
18 1 22 -5 8 -13 -26 -40 -42 -34 -14 5 -29 -101 -22 -158 2 -23 0 -32 -8 -29
-6 2 -14 -3 -17 -11 -4 -9 -13 -16 -22 -16 -8 0 -15 -5 -15 -12 0 -7 -7 -5
-17 4 -10 9 -32 19 -48 22 -22 5 -40 21 -65 57 -38 57 -55 72 -45 40 4 -14 2
-21 -7 -21 -16 0 -43 40 -40 57 5 23 -29 123 -44 131 -16 9 -9 42 8 42 6 0 4
8 -3 17 -12 15 -12 16 3 11 10 -4 19 -1 22 8 3 9 10 12 16 9 5 -3 10 -1 10 4
0 6 -8 11 -17 12 -11 0 -13 3 -5 6 6 2 10 9 6 14 -3 5 0 9 5 9 6 0 11 9 11 20
0 14 7 20 21 20 13 0 18 4 13 12 -4 7 -3 8 5 4 6 -4 8 -12 5 -18z m463 -2 c4
-5 1 -6 -7 -1 -10 6 -12 4 -7 -7 4 -12 -3 -17 -25 -22 -38 -7 -64 10 -47 31
13 15 77 15 86 -1z m25 -74 c-6 -2 -12 -12 -12 -22 0 -23 -10 -30 -30 -21 -25
10 -22 36 7 65 l27 28 11 -23 c7 -16 6 -24 -3 -27z m-451 -23 c-26 -11 -38 9
-15 25 17 13 20 13 25 -2 4 -11 0 -19 -10 -23z m419 -50 c0 -11 -4 -17 -10
-14 -5 3 -10 13 -10 21 0 8 5 14 10 14 6 0 10 -9 10 -21z m45 -39 c-11 -12
-13 -20 -5 -25 6 -4 9 -1 8 7 -2 8 4 12 15 10 9 -2 17 2 17 8 0 5 6 10 13 10
6 0 -3 -14 -21 -30 -21 -19 -42 -30 -60 -29 -24 2 -24 2 -4 6 17 3 21 9 17 23
-3 10 0 30 7 44 10 23 13 25 21 11 6 -11 4 -22 -8 -35z m-190 -100 c-10 -11
-21 -17 -24 -14 -3 3 3 12 13 20 28 20 32 17 11 -6z m283 -36 c4 -26 -22 -48
-45 -39 -16 6 -15 8 6 25 l25 18 -27 -5 c-27 -5 -38 11 -14 21 25 10 52 1 55
-20z m-341 -260 c-3 -3 -12 -4 -19 -1 -8 3 -5 6 6 6 11 1 17 -2 13 -5z"/>
<path d="M167 813 c-16 -4 -43 -51 -34 -59 2 -2 19 12 37 31 33 34 33 37 -3
28z"/>
<path d="M231 574 c0 -11 3 -14 6 -6 3 7 2 16 -1 19 -3 4 -6 -2 -5 -13z"/>
<path d="M221 494 c0 -11 3 -14 6 -6 3 7 2 16 -1 19 -3 4 -6 -2 -5 -13z"/>
<path d="M300 400 c0 -5 5 -10 11 -10 5 0 7 5 4 10 -3 6 -8 10 -11 10 -2 0 -4
-4 -4 -10z"/>
<path d="M468 285 c2 -14 6 -25 8 -25 2 0 4 11 4 25 0 14 -4 25 -9 25 -4 0 -6
-11 -3 -25z"/>
<path d="M140 189 c0 -11 4 -18 10 -14 5 3 7 12 3 20 -7 21 -13 19 -13 -6z"/>
<path d="M866 8 c7 -10 24 -10 24 0 0 5 -7 9 -15 9 -8 0 -12 -4 -9 -9z"/>
</g>
</svg>
