<?xml version="1.0" standalone="no"?>
<!DOCTYPE svg PUBLIC "-//W3C//DTD SVG 20010904//EN"
 "http://www.w3.org/TR/2001/REC-SVG-20010904/DTD/svg10.dtd">
<svg version="1.0" xmlns="http://www.w3.org/2000/svg"
 width="92.000000pt" height="92.000000pt" viewBox="0 0 92.000000 92.000000"
 preserveAspectRatio="xMidYMid meet">

<g transform="translate(0.000000,92.000000) scale(0.100000,-0.100000)"
fill="#000000" stroke="none">
<path d="M499 812 c-42 -45 -53 -71 -37 -90 34 -43 52 -102 27 -86 -7 4 -10 1
-7 -7 3 -8 -17 -24 -51 -41 -62 -32 -83 -48 -60 -48 7 0 30 10 49 22 19 12 52
30 74 40 34 16 37 20 25 36 -12 15 -12 16 1 6 8 -6 26 -8 39 -5 22 6 23 8 8
23 -16 15 -16 17 3 23 31 10 63 62 56 91 -7 25 -59 64 -86 63 -8 0 -27 -12
-41 -27z"/>
<path d="M542 599 c-13 -5 -29 -23 -37 -41 -8 -18 -15 -26 -16 -18 0 8 -7 -3
-14 -25 -12 -35 -14 -37 -20 -18 -8 26 -59 41 -79 23 -8 -6 -17 -21 -20 -34
-5 -19 -11 -22 -36 -18 -17 2 -33 8 -36 13 -3 5 -13 3 -23 -3 -15 -9 -22 -8
-37 7 -11 10 -20 13 -22 7 -2 -6 -9 -9 -15 -6 -7 2 -18 -10 -24 -27 -10 -26
-9 -34 2 -46 13 -13 15 -12 15 3 0 10 3 14 6 11 4 -3 15 -2 25 4 15 7 21 6 25
-5 3 -8 20 -17 38 -20 18 -4 41 -15 51 -26 22 -25 35 -25 36 -2 0 14 2 14 7 2
4 -8 18 -15 32 -14 14 0 33 -5 43 -10 29 -17 72 40 91 119 l8 30 -22 -28 c-12
-15 -29 -27 -37 -27 -14 0 -13 -3 2 -20 17 -18 17 -20 2 -14 -9 3 -17 11 -17
17 0 6 -6 3 -13 -8 -8 -10 -19 -15 -25 -11 -6 3 -13 2 -17 -4 -4 -6 -11 -8
-16 -4 -6 3 -24 7 -40 8 -16 1 -35 8 -42 16 -10 10 -9 11 2 5 12 -7 76 -8 113
-2 22 4 58 37 58 53 0 21 22 64 31 59 4 -3 11 0 15 6 4 8 3 9 -4 5 -16 -9 -15
7 0 22 16 16 33 15 20 0 -5 -7 -9 -32 -7 -56 2 -23 0 -56 -5 -72 -14 -48 7
-34 26 18 9 26 23 52 31 58 15 13 18 28 3 19 -6 -4 -10 6 -10 23 0 34 -15 43
-48 31z"/>
<path d="M484 357 c-44 -31 -58 -91 -50 -210 12 -155 7 -147 82 -147 l64 0 0
61 c0 34 -6 73 -14 87 -8 15 -19 43 -25 62 l-11 35 19 -22 c25 -30 33 -29 21
2 -6 17 -6 33 2 50 9 21 8 29 -9 48 -11 12 -23 30 -26 40 -8 21 -14 21 -53 -6z"/>
</g>
</svg>
