<?xml version="1.0" standalone="no"?>
<!DOCTYPE svg PUBLIC "-//W3C//DTD SVG 20010904//EN"
 "http://www.w3.org/TR/2001/REC-SVG-20010904/DTD/svg10.dtd">
<svg version="1.0" xmlns="http://www.w3.org/2000/svg"
 width="92.000000pt" height="92.000000pt" viewBox="0 0 92.000000 92.000000"
 preserveAspectRatio="xMidYMid meet">

<g transform="translate(0.000000,92.000000) scale(0.100000,-0.100000)"
fill="#000000" stroke="none">
<path d="M20 911 c0 -6 5 -13 10 -16 6 -3 10 1 10 9 0 9 -4 16 -10 16 -5 0
-10 -4 -10 -9z"/>
<path d="M80 912 c0 -5 6 -16 13 -26 13 -17 14 -17 30 8 l17 26 -30 0 c-16 0
-30 -4 -30 -8z"/>
<path d="M98 798 l-98 -121 0 -59 c0 -37 4 -57 10 -53 6 4 10 -5 10 -20 0 -15
-4 -24 -10 -20 -6 4 -10 -36 -10 -112 l1 -118 35 68 c25 49 33 74 28 93 -4 17
-9 22 -14 14 -4 -7 -8 21 -9 62 -1 72 1 77 36 124 43 56 48 50 41 -48 -2 -32
-1 -55 2 -51 13 15 29 68 35 116 5 35 13 51 31 64 20 13 104 157 104 178 0 3
-21 5 -47 5 l-48 -1 -97 -121z"/>
<path d="M244 763 c-42 -87 -99 -207 -126 -268 -28 -60 -66 -140 -84 -177 -33
-66 -34 -70 -34 -193 l0 -125 460 0 460 0 0 64 c0 52 -10 91 -55 216 -68 187
-71 193 -92 182 -19 -11 -55 -4 -47 9 3 5 0 9 -7 9 -8 0 -8 4 1 15 7 8 21 15
31 15 11 0 19 3 19 8 0 4 -34 96 -77 205 -70 178 -80 197 -101 197 -28 0 -27
-8 30 -130 58 -125 79 -180 68 -180 -6 0 -10 -5 -10 -11 0 -5 5 -7 12 -3 7 5
8 3 3 -5 -4 -8 1 -18 14 -27 12 -8 21 -22 21 -30 0 -22 -36 -17 -80 11 -22 14
-46 25 -53 25 -22 0 -77 64 -77 89 0 21 -2 22 -17 10 -15 -12 -16 -12 -8 6 4
11 9 35 11 54 2 19 8 39 14 45 16 16 12 54 -10 76 -21 21 -27 35 -10 25 19
-12 10 11 -11 29 -22 18 -22 18 -16 -3 4 -18 3 -20 -9 -10 -11 9 -17 9 -29 -1
-8 -6 -19 -9 -25 -5 -5 3 -10 1 -10 -5 0 -6 -7 -18 -15 -26 -21 -21 -30 -63
-16 -77 8 -8 14 -6 24 7 8 11 23 17 38 14 23 -3 24 -6 21 -61 -3 -45 0 -57 9
-51 7 4 10 3 5 -4 -3 -6 -15 -11 -26 -11 -11 -1 -29 -1 -40 -2 -15 0 -20 -7
-20 -28 0 -30 -22 -50 -90 -82 -67 -31 -112 -103 -135 -215 -9 -43 -13 -90
-10 -106 6 -26 4 -28 -24 -28 -17 0 -31 -4 -31 -10 0 -5 6 -10 13 -10 6 0 -1
-9 -18 -20 l-30 -20 -11 26 c-6 14 -9 38 -6 52 5 24 6 24 18 7 13 -18 14 -18
14 2 0 12 -5 23 -11 25 -7 2 -2 23 15 56 16 33 31 50 38 46 7 -5 9 0 6 14 -4
12 -2 22 4 22 5 0 7 4 4 9 -7 11 17 69 94 223 78 158 98 188 121 188 10 0 19
7 19 15 0 8 -5 15 -11 15 -11 0 -9 16 6 53 5 13 2 17 -14 17 -18 0 -35 -27
-97 -157z m63 -636 c-2 -23 -3 -2 -3 48 0 50 1 68 3 42 2 -26 2 -67 0 -90z
m91 37 l-3 -79 -5 87 c-3 48 -1 83 3 79 4 -4 7 -43 5 -87z m140 0 l-3 -79 -5
87 c-3 48 -1 83 3 79 4 -4 7 -43 5 -87z m83 59 c2 -21 2 -60 -2 -88 -4 -44 -6
-40 -10 38 -4 85 5 124 12 50z m-342 -43 l-1 -25 -8 25 c-4 14 -8 32 -9 40 -1
13 0 13 9 0 5 -8 9 -26 9 -40z m480 -12 c-1 -7 -5 -24 -9 -38 -7 -23 -8 -23
-9 -3 -1 12 -4 28 -7 37 -4 11 -1 16 10 16 9 0 16 -6 15 -12z m45 -20 c9 -34
8 -38 -9 -38 -10 0 -15 10 -15 30 0 35 15 40 24 8z m4 -66 c2 -7 -3 -12 -12
-12 -9 0 -16 7 -16 16 0 17 22 14 28 -4z m-81 -54 c-3 -7 -5 -2 -5 12 0 14 2
19 5 13 2 -7 2 -19 0 -25z"/>
<path d="M490 916 c0 -9 30 -14 35 -6 4 6 -3 10 -14 10 -12 0 -21 -2 -21 -4z"/>
<path d="M640 915 c0 -15 36 -85 43 -85 5 0 7 14 5 30 l-5 30 29 -29 c37 -38
48 -75 54 -190 3 -61 11 -109 24 -140 11 -25 44 -113 75 -196 l54 -150 1 271
0 272 -77 95 -78 96 -62 0 c-35 1 -63 -1 -63 -4z m180 -240 c0 -47 -12 -75
-32 -75 -10 0 -11 85 -1 130 6 31 7 32 20 15 7 -11 13 -42 13 -70z"/>
<path d="M831 879 c41 -52 45 -53 41 -13 -3 21 0 34 7 34 6 0 11 -4 11 -9 0
-5 7 -11 15 -15 11 -4 15 2 15 20 0 24 -2 25 -60 23 l-59 -2 30 -38z"/>
<path d="M76 833 c-6 -14 -5 -15 5 -6 7 7 10 15 7 18 -3 3 -9 -2 -12 -12z"/>
<path d="M901 816 c-9 -10 -8 -16 4 -26 13 -11 15 -8 15 14 0 30 -3 32 -19 12z"/>
<path d="M33 788 c-23 -30 -24 -41 -2 -21 12 12 20 25 17 28 -3 3 -10 0 -15
-7z"/>
<path d="M390 736 c0 -17 38 -28 46 -14 7 11 -13 28 -33 28 -7 0 -13 -6 -13
-14z"/>
<path d="M521 704 c0 -11 3 -14 6 -6 3 7 2 16 -1 19 -3 4 -6 -2 -5 -13z"/>
<path d="M91 520 c0 -33 1 -34 10 -11 6 16 6 28 -1 35 -7 7 -10 -1 -9 -24z"/>
</g>
</svg>
