<svg width="345" height="345" viewBox="0 0 345 345" fill="none" xmlns="http://www.w3.org/2000/svg">
<rect width="345" height="345" fill="#242424"/>
<path d="M193.25 210.188C193.25 206.9 194.556 203.747 196.881 201.422C199.205 199.098 202.358 197.792 205.646 197.792H232.208V209.833C232.208 213.215 230.865 216.458 228.474 218.849C226.083 221.24 222.84 222.583 219.458 222.583H205.646C202.358 222.583 199.205 221.277 196.881 218.953C194.556 216.628 193.25 213.475 193.25 210.188ZM108.25 224.354C108.25 221.067 109.556 217.914 111.881 215.589C114.205 213.264 117.358 211.958 120.646 211.958H143.667V224C143.667 225.674 143.337 227.332 142.696 228.879C142.055 230.426 141.116 231.832 139.932 233.016C138.748 234.2 137.343 235.139 135.796 235.779C134.249 236.42 132.591 236.75 130.917 236.75H120.646C117.358 236.75 114.205 235.444 111.881 233.119C109.556 230.795 108.25 227.642 108.25 224.354Z" stroke="#A6A6A6" stroke-width="7" stroke-linejoin="round"/>
<path d="M143.667 151.906L232.208 130.943M143.667 222.583V123.417L232.208 102.167V207.326" stroke="#A6A6A6" stroke-width="7" stroke-linecap="round" stroke-linejoin="round"/>
</svg>
