<?xml version="1.0" standalone="no"?>
<!DOCTYPE svg PUBLIC "-//W3C//DTD SVG 20010904//EN"
 "http://www.w3.org/TR/2001/REC-SVG-20010904/DTD/svg10.dtd">
<svg version="1.0" xmlns="http://www.w3.org/2000/svg"
 width="92.000000pt" height="92.000000pt" viewBox="0 0 92.000000 92.000000"
 preserveAspectRatio="xMidYMid meet">

<g transform="translate(0.000000,92.000000) scale(0.100000,-0.100000)"
fill="#000000" stroke="none">
<path d="M1 728 c1 -126 6 -196 13 -201 8 -6 7 -10 -2 -14 -9 -3 -12 -65 -12
-259 l0 -254 236 0 c207 0 235 2 224 15 -10 12 -6 15 29 21 23 4 41 11 41 16
0 5 4 6 10 3 5 -3 33 1 62 10 28 8 73 15 100 15 32 0 66 9 99 25 27 14 55 25
62 24 41 -5 57 2 57 25 0 19 -7 26 -31 31 -18 4 -34 16 -39 28 -5 12 -9 18 -9
14 -1 -7 -59 21 -71 34 -3 3 -13 8 -23 12 -12 5 -17 15 -15 29 4 28 51 37 76
15 10 -8 38 -17 65 -20 l47 -7 0 85 0 85 -45 -5 -45 -4 7 47 c3 26 11 50 17
55 7 5 4 12 -9 23 -18 14 -19 17 -4 42 8 15 21 27 29 27 22 0 29 -57 10 -73
-13 -12 -13 -13 4 -8 13 5 17 2 13 -8 -3 -8 1 -22 8 -33 12 -15 14 11 14 190
l1 207 -461 0 -460 0 2 -192z m490 -118 c6 0 7 -5 4 -11 -4 -5 -9 -36 -12 -67
-2 -31 -10 -60 -16 -64 -17 -11 -19 4 -9 61 5 28 6 51 2 51 -9 0 -7 16 6 45 7
18 9 18 12 3 2 -10 8 -18 13 -18z m-314 1 c10 -15 8 -20 -12 -31 -13 -7 -28
-9 -34 -6 -6 4 -11 1 -11 -6 0 -9 12 -13 34 -13 31 1 34 0 25 -17 -8 -14 -14
-16 -23 -9 -6 6 -22 8 -34 4 -25 -6 -27 1 -10 48 17 51 44 64 65 30z m351
-103 c5 -20 4 -49 -2 -73 l-10 -40 -13 60 c-16 78 -16 85 2 85 8 0 18 -14 23
-32z m-81 -129 c-5 -36 -4 -38 14 -28 28 14 37 4 43 -46 3 -25 9 -65 12 -90 3
-27 1 -45 -5 -45 -10 0 -38 75 -47 126 -9 51 -20 36 -14 -21 l1 -20 -14 20
c-11 15 -13 40 -9 99 3 58 7 74 15 61 5 -10 7 -35 4 -56z m-47 -77 c-14 -49
-29 -80 -39 -87 -14 -8 -14 -3 0 71 13 73 19 82 35 60 8 -11 9 -27 4 -44z
m-278 -246 c5 -7 -1 -12 -14 -14 -11 -2 -24 1 -28 7 -3 7 -14 9 -23 5 -11 -4
-17 -1 -17 9 0 13 8 15 38 10 20 -3 40 -11 44 -17z m45 -8 c-3 -8 -6 -5 -6 6
-1 11 2 17 5 13 3 -3 4 -12 1 -19z"/>
<path d="M722 41 c-73 -23 -46 -36 81 -39 100 -2 117 0 117 13 0 10 -10 15
-34 15 -19 0 -41 6 -48 14 -17 16 -59 16 -116 -3z"/>
</g>
</svg>
